<?xml version="1.0" encoding="utf-8"?>
<!-- Generator: Adobe Illustrator 21.0.0, SVG Export Plug-In . SVG Version: 6.00 Build 0)  -->
<svg version="1.1" id="Слой_1" xmlns="http://www.w3.org/2000/svg" xmlns:xlink="http://www.w3.org/1999/xlink" x="0px" y="0px"
	 viewBox="0 0 5.5 6.9" style="enable-background:new 0 0 5.5 6.9;" xml:space="preserve">
<style type="text/css">
	.st0{fill:#768A8F;}
</style>
<g>
	<path class="st0" d="M4.7,0H0.8C0.3,0,0,0.3,0,0.8v3.9c0,0.5,0.4,0.8,0.8,0.8h3.9c0.5,0,0.8-0.4,0.8-0.8V0.8C5.6,0.3,5.2,0,4.7,0z
		 M5.3,1.5v3.2C5.3,5,5,5.3,4.7,5.3H0.8C0.5,5.3,0.2,5,0.2,4.7V1.5H5.3z M5.3,0.8v0.5h-5V0.8c0-0.3,0.2-0.5,0.5-0.5h3.9
		C5,0.2,5.3,0.5,5.3,0.8z"/>
	<path class="st0" d="M1,0.4c-0.2,0-0.4,0.2-0.4,0.4C0.6,1,0.8,1.1,1,1.1c0.2,0,0.4-0.2,0.4-0.4C1.4,0.5,1.2,0.4,1,0.4z M1,0.9
		c-0.1,0-0.2-0.1-0.2-0.2c0-0.1,0.1-0.2,0.2-0.2c0.1,0,0.2,0.1,0.2,0.2C1.2,0.8,1.1,0.9,1,0.9z"/>
	<rect x="1.6" y="0.6" class="st0" width="2.6" height="0.3"/>
	<rect x="1.5" y="2.2" class="st0" width="3.1" height="0.3"/>
	<rect x="0.9" y="2.9" class="st0" width="3.7" height="0.3"/>
	<rect x="1.5" y="3.5" class="st0" width="3.1" height="0.3"/>
	<rect x="0.9" y="4.2" class="st0" width="3.7" height="0.3"/>
</g>
</svg>
