<?xml version="1.0" encoding="utf-8"?>
<!-- Generator: Adobe Illustrator 21.0.0, SVG Export Plug-In . SVG Version: 6.00 Build 0)  -->
<svg version="1.1" id="Слой_1" xmlns="http://www.w3.org/2000/svg" xmlns:xlink="http://www.w3.org/1999/xlink" x="0px" y="0px"
	 viewBox="0 0 512 640" style="enable-background:new 0 0 512 640;" xml:space="preserve">
<style type="text/css">
	.st0{fill:#768A8F;}
</style>
<g>
	<path class="st0" d="M162.8,83h128.8c5.5,0,10-4.5,10-10s-4.5-10-10-10H162.8c-5.5,0-10,4.5-10,10S157.2,83,162.8,83z"/>
	<path class="st0" d="M331,113.7c5.5,0,10-4.5,10-10v-62c0-5.5-4.5-10-10-10s-10,4.5-10,10v62C321,109.2,325.5,113.7,331,113.7z"/>
	<path class="st0" d="M124,113.7c5.5,0,10-4.5,10-10v-62c0-5.5-4.5-10-10-10s-10,4.5-10,10v62C114,109.2,118.5,113.7,124,113.7z"/>
	<path class="st0" d="M392.5,171c0-5.5-4.5-10-10-10H72.8c-5.5,0-10,4.5-10,10s4.5,10,10,10h309.8C388,181,392.5,176.5,392.5,171z"
		/>
	<path class="st0" d="M320.2,233c0-5.5-4.5-10-10-10H72.8c-5.5,0-10,4.5-10,10s4.5,10,10,10h237.5C315.8,243,320.2,238.5,320.2,233z
		"/>
	<path class="st0" d="M72.8,285c-5.5,0-10,4.5-10,10s4.5,10,10,10H207c5.5,0,10-4.5,10-10s-4.5-10-10-10H72.8z"/>
	<path class="st0" d="M444,277V72.7c0-5.5-4.3-9.7-9.9-9.7h-72.3c-5.5,0-9.9,4.5-9.9,10s4.5,10,10,10H424v185.7
		c-9.9-3-20.4-4.6-31.2-4.6c-59.6,0-108.1,48.5-108.1,108.1c0,10.7,1.6,21,4.5,30.8H31V83h52c5.5,0,10-4.5,10-10s-4.5-10-10-10H21
		c-5.5,0-10,4.2-10,9.7v340.8c0,5.5,4.5,9.5,10.1,9.5h276.3c18.2,34.1,54.1,57.3,95.4,57.3c59.6,0,108.1-48.5,108.1-108.1
		C501,331.1,477.9,295.3,444,277z M392.8,460.3c-48.6,0-88.1-39.5-88.1-88.1s39.5-88.1,88.1-88.1s88.1,39.5,88.1,88.1
		C481,420.8,441.5,460.3,392.8,460.3z"/>
	<path class="st0" d="M440.7,367H403v-51.6c0-5.5-4.5-10-10-10s-10,4.5-10,10v62c0,5.5,4.3,9.7,9.8,9.7h47.8c5.5,0,10-4.5,10-10
		S446.2,367,440.7,367z"/>
</g>
</svg>
