<?xml version="1.0" encoding="utf-8"?>
<!-- Generator: Adobe Illustrator 21.0.0, SVG Export Plug-In . SVG Version: 6.00 Build 0)  -->
<svg version="1.1" id="Слой_1" xmlns="http://www.w3.org/2000/svg" xmlns:xlink="http://www.w3.org/1999/xlink" x="0px" y="0px"
	 viewBox="0 0 100 125" style="enable-background:new 0 0 100 125;" xml:space="preserve">
<style type="text/css">
	.st0{fill:#768A8F;}
</style>
<path class="st0" d="M50,23c-17.6,0-32,12.1-32,27c0,8,4.2,15.5,11.3,20.6l-3.1,7.9c-0.6,1.6-0.2,3.4,1.1,4.5c1.5,1.3,3,1.2,4.6,0.5
	l12.3-6.9c1.9,0.3,3.8,0.4,5.7,0.4c17.6,0,32-12.1,32-27C82,35.1,67.6,23,50,23z M50,73c-2.2,0-4.4-0.2-6.5-0.6L30,80l4.2-11
	C26.8,64.9,22,57.9,22,50c0-12.7,12.5-23,28-23s28,10.3,28,23S65.5,73,50,73z M54,50c0,2.2-1.8,4-4,4s-4-1.8-4-4s1.8-4,4-4
	S54,47.8,54,50z M40,50c0,2.2-1.8,4-4,4s-4-1.8-4-4s1.8-4,4-4S40,47.8,40,50z M68,50c0,2.2-1.8,4-4,4s-4-1.8-4-4s1.8-4,4-4
	C66.2,46,68,47.8,68,50z"/>
</svg>
