<?xml version="1.0" encoding="utf-8"?>
<!-- Generator: Adobe Illustrator 21.0.0, SVG Export Plug-In . SVG Version: 6.00 Build 0)  -->
<svg version="1.1" id="Слой_1" xmlns="http://www.w3.org/2000/svg" xmlns:xlink="http://www.w3.org/1999/xlink" x="0px" y="0px"
	 viewBox="0 0 1024 1280" style="enable-background:new 0 0 1024 1280;" xml:space="preserve">
<style type="text/css">
	.st0{fill:#768A8F;}
</style>
<path class="st0" d="M680.8,0H66.1v1024h891.9V346.8L680.8,0z M908.4,363.4v611.1H115.6V49.5H657l3.6,4.6V4.6l291.5,358.7H908.4z
	 M231.2,297.3h363.4v49.5H231.2V297.3z M231.2,545h561.5v49.5H231.2V545z M231.2,776.3h561.5v49.5H231.2V776.3z M660.6,4.6v251.5
	c0,51.5,35,107.2,90.8,107.2h200.7L660.6,4.6z M751.5,313.8c-24.8,0-41.3-30.6-41.3-57.8V144l137.9,169.8H751.5z"/>
</svg>
