<?xml version="1.0" encoding="utf-8"?>
<!-- Generator: Adobe Illustrator 21.0.0, SVG Export Plug-In . SVG Version: 6.00 Build 0)  -->
<svg version="1.1" id="Слой_1" xmlns="http://www.w3.org/2000/svg" xmlns:xlink="http://www.w3.org/1999/xlink" x="0px" y="0px"
	 viewBox="0 0 57.1 71.4" style="enable-background:new 0 0 57.1 71.4;" xml:space="preserve">
<style type="text/css">
	.st0{fill:#768A8F;}
</style>
<g>
	<path class="st0" d="M28.5,57.1C44.2,57.1,57,44.3,57,28.6S44.3,0,28.5,0C12.8,0,0,12.8,0,28.5S12.8,57.1,28.5,57.1z M28.5,2.6
		c14.3,0,25.9,11.6,25.9,25.9s-11.6,26-25.9,26S2.6,42.8,2.6,28.5S14.2,2.6,28.5,2.6z"/>
	<path class="st0" d="M26.9,20.9v23.3h3.3V20.9H26.9z"/>
	<path class="st0" d="M28.5,17.9c1.3,0,2.4-1.1,2.4-2.4c0-1.3-1.1-2.4-2.4-2.4s-2.4,1.1-2.4,2.4S27.2,17.9,28.5,17.9z"/>
</g>
</svg>
