<?xml version="1.0" encoding="utf-8"?>
<!-- Generator: Adobe Illustrator 21.0.0, SVG Export Plug-In . SVG Version: 6.00 Build 0)  -->
<svg version="1.1" id="Слой_1" xmlns="http://www.w3.org/2000/svg" xmlns:xlink="http://www.w3.org/1999/xlink" x="0px" y="0px"
	 viewBox="0 0 100 125" style="enable-background:new 0 0 100 125;" xml:space="preserve">
<style type="text/css">
	.st0{fill:#768A8F;}
</style>
<g transform="translate(0,-952.36218)">
	<path class="st0" d="M54,963.4c-3.3,0-6.2,2.4-6.9,5.6c-0.1,0.3,0,0.2-0.1,0.3c0,0.2-0.1,0.4-0.1,0.7c-0.1,0.6-0.4,1.5-0.7,2.6
		c-0.6,2.2-1.6,5.2-3.1,8.5c-2.9,6.4-7.9,13.8-15.8,18.3H14.5c-0.9,0-1.7,0.7-1.9,1.6c-1,4.4-1.6,9.7-1.6,15.4
		c0,5.8,0.6,11.1,1.6,15.4c0.2,0.9,1,1.6,1.9,1.6H26c3.9,0,7.6,1.8,12.3,3.8s10.3,4.2,17.7,4.2h19c4.6,0,8-4.2,8-9
		c0-0.7-0.3-1.4-0.4-2.1c2.7-1.5,4.4-4.5,4.4-7.9c0-1.2-0.3-2.3-0.6-3.3c1.5-1.8,2.6-4.1,2.6-6.7c0-2.6-1.1-4.9-2.6-6.7
		c0.9-1.6,1.6-3.3,1.6-5.3c0-5.4-3.9-10-9-10H61v-20C61,966.5,57.8,963.4,54,963.4z M54,967.4c1.7,0,3,1.3,3,3v22c0,1.1,0.9,2,2,2
		h20c2.6,0,5,2.5,5,6c0,1.7-0.6,3.1-1.5,4.2c-0.7,0.8-0.6,2.1,0.2,2.8c0,0,0,0,0,0c1.3,1,2.2,2.8,2.2,4.9c0,2.1-0.9,3.9-2.1,4.9
		c-0.7,0.6-0.9,1.6-0.5,2.4c0.4,0.8,0.6,1.7,0.6,2.7c0,2.5-1.5,4.4-3.2,4.9c-1.1,0.3-1.7,1.4-1.5,2.4c0,0.1,0.1,0.2,0.1,0.3
		c0.3,0.7,0.5,1.5,0.5,2.4c0,2.9-1.9,5-4,5H56c-6.6,0-11.5-1.9-16.1-3.8s-8.8-4.2-13.9-4.2h-9.8c-0.7-3.7-1.2-8.1-1.2-13
		c0-4.9,0.5-9.3,1.2-13H28c0.3,0,0.7-0.1,1-0.2c9.2-5,14.7-13.4,17.9-20.4c1.6-3.5,2.6-6.7,3.3-9.1c0.3-1.2,0.5-2.2,0.7-2.8
		c0.1-0.3,0.1-0.6,0.2-0.8c0-0.2,0.1-0.5,0.1-0.3C51.3,968.4,52.5,967.4,54,967.4z"/>
</g>
</svg>
