<?xml version="1.0" encoding="utf-8"?>
<!-- Generator: Adobe Illustrator 21.0.0, SVG Export Plug-In . SVG Version: 6.00 Build 0)  -->
<svg version="1.1" id="Слой_1" xmlns="http://www.w3.org/2000/svg" xmlns:xlink="http://www.w3.org/1999/xlink" x="0px" y="0px"
	 viewBox="0 0 100 125" style="enable-background:new 0 0 100 125;" xml:space="preserve">
<style type="text/css">
	.st0{fill:#768A8F;}
</style>
<g transform="translate(0,-952.36218)">
	<path class="st0" d="M11,968.4c-3.3,0-6,2.7-6,6v56c0,3.3,2.7,6,6,6h78c3.3,0,6-2.7,6-6v-56c0-3.3-2.7-6-6-6H11z M11,972.4h78
		c1.1,0,2,0.9,2,2v41.8l-16.8-13.4c-0.7-0.5-1.7-0.6-2.4-0.1l-14.8,10.2l-19.8-16.1c-0.4-0.3-1-0.5-1.5-0.4c-0.3,0-0.6,0.2-0.9,0.3
		L9,1014.5v-40.2C9,973.2,9.9,972.4,11,972.4L11,972.4z M57,982.4c-4.4,0-8,3.6-8,8s3.6,8,8,8s8-3.6,8-8S61.4,982.4,57,982.4z
		 M57,986.4c2.2,0,4,1.8,4,4s-1.8,4-4,4c-2.2,0-4-1.8-4-4S54.8,986.4,57,986.4z M35.9,1000.8l19.8,16.1c0.7,0.5,1.7,0.6,2.4,0.1
		l14.8-10.2l18.1,14.5v9c0,1.1-0.9,2-2,2H11c-1.1,0-2-0.9-2-2v-11L35.9,1000.8L35.9,1000.8z"/>
</g>
</svg>
