<?xml version="1.0" encoding="utf-8"?>
<!-- Generator: Adobe Illustrator 21.0.0, SVG Export Plug-In . SVG Version: 6.00 Build 0)  -->
<svg version="1.1" id="Слой_1" xmlns="http://www.w3.org/2000/svg" xmlns:xlink="http://www.w3.org/1999/xlink" x="0px" y="0px"
	 viewBox="0 0 100 125" style="enable-background:new 0 0 100 125;" xml:space="preserve">
<style type="text/css">
	.st0{fill:#768A8F;}
</style>
<g transform="translate(0,-952.36218)">
	<path class="st0" d="M42,966.4c-1,0-1.9,0.9-2,1.8l-0.8,6.4c-2.9,1.1-5.6,2.7-7.9,4.6l-5.9-2.5c-0.9-0.4-2,0-2.5,0.8l-8,13.9
		c-0.5,0.8-0.3,2,0.5,2.6l5.1,3.9c-0.2,1.5-0.4,3-0.4,4.6c0,1.6,0.2,3.1,0.4,4.6l-5.1,3.9c-0.8,0.6-1,1.8-0.5,2.6l8,13.9
		c0.5,0.8,1.6,1.2,2.5,0.8l5.9-2.5c2.4,1.9,5,3.4,7.9,4.6l0.8,6.4c0.1,1,1,1.8,2,1.8h16c1,0,1.9-0.8,2-1.8l0.8-6.4
		c2.9-1.1,5.6-2.6,7.9-4.6l5.9,2.5c0.9,0.4,2,0,2.5-0.8l8-13.9c0.5-0.8,0.3-2-0.5-2.6l-5.1-3.9c0.2-1.5,0.4-3,0.4-4.6
		c0-1.6-0.2-3.1-0.4-4.6l5.1-3.9c0.8-0.6,1-1.8,0.5-2.6l-8-13.9c-0.5-0.8-1.6-1.2-2.5-0.8l-5.9,2.5c-2.4-1.9-5-3.5-7.9-4.6l-0.8-6.4
		c-0.1-1-1-1.8-2-1.8H42z M43.8,970.4h12.4l0.7,5.7c0.1,0.7,0.7,1.4,1.4,1.6c3.3,1.1,6.3,2.9,8.9,5.2c0.6,0.5,1.4,0.6,2.1,0.3
		l5.3-2.2l6.2,10.8l-4.6,3.5c-0.6,0.4-0.9,1.2-0.8,2c0.3,1.6,0.5,3.4,0.5,5.2c0,1.8-0.2,3.5-0.5,5.1c-0.2,0.7,0.2,1.5,0.8,2l4.6,3.5
		l-6.2,10.8l-5.3-2.2c-0.7-0.3-1.5-0.1-2.1,0.3c-2.6,2.3-5.6,4-8.9,5.1c-0.7,0.2-1.3,0.9-1.4,1.7l-0.7,5.7H43.8l-0.7-5.7
		c-0.1-0.8-0.7-1.4-1.4-1.7c-3.3-1.1-6.3-2.9-8.9-5.1c-0.6-0.5-1.4-0.6-2.1-0.3l-5.3,2.2l-6.2-10.8l4.6-3.5c0.6-0.5,0.9-1.3,0.8-2
		c-0.3-1.6-0.5-3.4-0.5-5.1c0-1.8,0.2-3.5,0.5-5.2c0.1-0.7-0.2-1.5-0.8-2l-4.6-3.5l6.2-10.8l5.3,2.2c0.7,0.3,1.5,0.1,2.1-0.3
		c2.6-2.3,5.6-4,8.9-5.2c0.7-0.2,1.3-0.9,1.4-1.6L43.8,970.4z M50,984.4c-9.9,0-18,8.1-18,18c0,9.9,8.1,18,18,18c9.9,0,18-8.1,18-18
		C68,992.4,59.9,984.4,50,984.4z M50,988.4c7.8,0,14,6.2,14,14c0,7.8-6.2,14-14,14c-7.8,0-14-6.2-14-14
		C36,994.6,42.2,988.4,50,988.4z"/>
</g>
</svg>
