<?xml version="1.0" encoding="utf-8"?>
<!-- Generator: Adobe Illustrator 21.0.0, SVG Export Plug-In . SVG Version: 6.00 Build 0)  -->
<svg version="1.1" id="Слой_1" xmlns="http://www.w3.org/2000/svg" xmlns:xlink="http://www.w3.org/1999/xlink" x="0px" y="0px"
	 viewBox="0 0 1024 1280" style="enable-background:new 0 0 1024 1280;" xml:space="preserve">
<style type="text/css">
	.st0{fill:#768A8F;}
</style>
<g>
	<g>
		<g>
			<path class="st0" d="M221.7,644.5c-23.2,0-46.3,0-69.5,0c-2.8,0-5.7-0.2-8.5,0c-4.1,0.3,1.7-0.7,1.2,0.4c0,0.1-3.9-0.9-3.9-1
				c0.8,0.3,1.6,0.7,2.3,1c-0.8-0.4-1.6-0.8-2.3-1.2c-3.7-1.8,2.6,3.1-0.1,0c0.1,0.1-1.8-1.8-1.8-1.9c0.5,0.7,1,1.3,1.5,2
				c-0.5-0.7-0.9-1.5-1.4-2.2c-2.3-3.4,0.7,4,0-0.1c-0.2-0.9-0.4-1.7-0.6-2.6c0.4,3.1,0.5,3.5,0.4,1.2c0.3-4,0-8.2,0-12.2
				c0-53.9,0-107.8,0-161.8c0-9.1,0-18.3,0-27.4c0-2.2,0-4.3,0-6.5c0-0.2,0-0.5,0-0.8c-0.3-4.4-1,3.1-0.2,0.6
				c0.1-0.3,0.6-3.2,0.9-3.2c-0.3,0.8-0.7,1.6-1,2.3c0.4-0.8,0.8-1.6,1.2-2.3c1.2-1.8,0.9-1.5-0.8,0.9c0.6-0.7,1.2-1.3,1.8-1.9
				c2.7-3.1-3.6,1.7,0.1,0c0.3-0.1,2.2-1.4,2.3-1.2c-0.8,0.3-1.6,0.7-2.3,1c0.8-0.3,1.7-0.5,2.6-0.7c4.2-1.3-4.4-0.2,0.1,0.1
				c0.8,0,1.5,0,2.3,0c4.8,0,9.6,0,14.5,0c14.8,0,29.6,0,44.5,0c4.8,0,9.6,0,14.5,0c0.8,0,1.5,0,2.3,0c4.2-0.3-1.7,0.7-1.2-0.4
				c0-0.1,3.9,0.9,3.9,1c-0.1,0.8-3.8-2.2-1.2-0.4c0.8,0.4,1.5,0.9,2.2,1.4c-2.3-1.9-2.6-2.1-1-0.7c0.3,0.3,0.6,0.6,0.9,0.9
				c1.4,1.6,1.2,1.3-0.7-1c0.1,0,2.1,3.3,2,3.4c-0.2,0.2-1.3-4.5-0.4-0.4c0.8,3.7-0.8,0.4,0-0.6c0,0.1,0,1.7,0,2.1
				c0,2.2,0,4.3,0,6.5c0,22.6,0,45.3,0,67.9c0,29.7,0,59.4,0,89.2c0,14.7-0.9,29.7,0,44.3c0.3,4.5,1.4-4.1,0.1,0.1
				c-0.1,0.4-0.2,0.9-0.3,1.3c-0.7,2.1-0.5,1.7,0.6-1.1c0.1,0.1-1.8,3.4-2,3.4c-0.4-0.1,3.6-3.6,0.7-1c-0.3,0.3-0.6,0.6-0.9,0.9
				c-1.6,1.4-1.3,1.2,1-0.7c0,0.1-3.3,2.1-3.4,2c0.8-0.3,1.6-0.7,2.3-1c-0.8,0.3-1.7,0.5-2.6,0.7C217.5,646,226.3,644.3,221.7,644.5
				c-10.4,0.3-20.5,9-20,20c0.5,10.6,8.8,20.3,20,20c25.2-0.7,44.4-20.6,44.5-45.8c0-6.9,0-13.8,0-20.7c0-29,0-57.9,0-86.9
				c0-27.6,0-55.2,0-82.8c0-5.6,0.1-11.2,0-16.8c-0.6-25.2-20.4-44.6-45.6-44.8c-24.9-0.2-49.8,0-74.6,0
				c-25.5,0-46.2,18.6-46.8,44.6c-0.1,4.9,0,9.9,0,14.8c0,56.4,0,112.8,0,169.2c0,7.5,0,15.1,0,22.6c0.1,21.1,13.5,41.2,35.1,45.5
				c11.1,2.2,23,1.1,34.2,1.1c14.9,0,29.8,0,44.7,0c2.8,0,5.7,0,8.5,0c10.5,0,20.5-9.2,20-20C241.2,653.6,232.9,644.5,221.7,644.5z"
				/>
		</g>
	</g>
	<g>
		<g>
			<path class="st0" d="M880.3,644.5c-23,0-46.1,0-69.1,0c-2.6,0-5.3-0.2-7.9,0c-4.5,0.3,4.1,1.4-0.1,0.1c-0.4-0.1-0.9-0.2-1.3-0.3
				c-2.1-0.7-1.7-0.5,1.1,0.6c-0.1,0.1-3.4-1.8-3.4-2c0.3-0.8,3.1,3.1,1,0.7c-0.3-0.3-0.6-0.6-0.9-0.9c-1.4-1.6-1.2-1.3,0.7,1
				c-0.1,0-2.1-3.3-2-3.4c0.3,0.8,0.7,1.6,1,2.3c-0.3-0.8-0.5-1.7-0.7-2.6c-1.2-3.9-0.1,3.8,0.1-0.1c0.3-4.2,0-8.5,0-12.7
				c0-53.7,0-107.5,0-161.2c0-9.2,0-18.4,0-27.6c0-2.1,0-4.2,0-6.3c0-0.2,0-0.5,0-0.8c-0.3-4.4-1.5,4-0.1-0.1
				c0.1-0.3,0.6-2.6,0.7-2.6c-0.6-0.1-1.8,4.2,0.2,0c1.2-1.8,0.9-1.5-0.8,0.9c0.6-0.7,1.2-1.3,1.8-1.9c2.7-3.1-3.6,1.7,0.1,0
				c-0.2,0.1,2.2-1.3,2.3-1.2c-0.8,0.3-1.6,0.7-2.3,1c0.8-0.3,1.7-0.5,2.6-0.7c4.2-1.3-4.4-0.2,0.1,0.1c0.8,0,1.5,0,2.3,0
				c4.8,0,9.7,0,14.5,0c14.6,0,29.2,0,43.8,0c4.8,0,9.6,0,14.4,0c0.6,0,1.3,0,1.9,0c4.4-0.3-4-1.5,0.1-0.1c0.3,0.1,2.6,0.6,2.6,0.7
				c0.1-0.6-4.2-1.8,0,0.2c1.8,1.2,1.5,0.9-0.9-0.8c0.7,0.6,1.3,1.2,1.9,1.8c3.1,2.7-1.7-3.6,0,0.1c-0.1-0.2,1.3,2.2,1.2,2.3
				c-0.3-0.8-0.7-1.6-1-2.3c0.3,0.8,0.5,1.7,0.7,2.6c1.3,4.2,0.2-4.4-0.1,0.1c0,0.3,0,0.6,0,0.9c0,2.1,0,4.2,0,6.3
				c0,23,0,45.9,0,68.9c0,29.7,0,59.3,0,89c0,14.4-0.9,29.1,0,43.5c0.3,4.5,1.4-4.1,0.1,0.1c-0.1,0.4-0.2,0.9-0.3,1.3
				c-0.7,2.1-0.5,1.7,0.6-1.1c0.1,0.1-1.8,3.4-2,3.4c-0.4-0.1,3.6-3.6,0.7-1c-0.3,0.3-0.6,0.6-0.9,0.9c-1.6,1.4-1.3,1.2,1-0.7
				c0,0.1-3.3,2.1-3.4,2c0.8-0.3,1.6-0.7,2.3-1C882.1,644.2,881.2,644.4,880.3,644.5C876,646,884.9,644.3,880.3,644.5
				c-10.4,0.3-20.5,9-20,20c0.5,10.6,8.8,20.3,20,20c25.2-0.7,44.4-20.6,44.5-45.8c0-6.9,0-13.8,0-20.7c0-28.6,0-57.2,0-85.9
				c0-27.9,0-55.8,0-83.8c0-5.6,0.1-11.2,0-16.8c-0.5-25.1-20.3-44.6-45.3-44.8c-24.6-0.2-49.3,0-73.9,0
				c-25.5,0-46.2,18.6-46.8,44.6c-0.1,4.9,0,9.9,0,14.8c0,56.2,0,112.4,0,168.6c0,7.7,0,15.4,0,23c0,20.7,12.7,40.6,33.8,45.4
				c11.1,2.5,23.4,1.3,34.6,1.3c14.9,0,29.7,0,44.6,0c2.8,0,5.7,0,8.5,0c10.5,0,20.5-9.2,20-20C899.8,653.6,891.5,644.5,880.3,644.5
				z"/>
		</g>
	</g>
	<g>
		<g>
			<path class="st0" d="M534.1,854.1c-15.8,0-31.9,0.9-47.7-0.1c-4.2-0.3,0.3,0.5,0.5,0.2c-0.1,0.1-2.8-0.5-2.7-0.5
				c-1.8-0.4-3.5-0.9-5.2-1.4c-0.4-0.1-2.5-0.7-2.5-0.9c0,0,3.9,1.9,1.1,0.4c-1.9-1-3.9-2-5.7-3.2c-0.3-0.2-2.2-1.4-2.2-1.5
				c0,0,3.2,2.8,0.9,0.7c-1.3-1.2-2.6-2.3-3.8-3.6c-0.8-0.8-1.5-1.6-2.2-2.4c-0.9-1-1.1-2.7-0.5-0.5c0.7,2.3,0.3,0.3-0.3-0.6
				c-0.6-0.9-1.2-1.8-1.7-2.8c-0.6-1-1-1.9-1.6-2.9c-0.5-0.8-1-3.3-0.4-0.6c0.7,3.1-0.8-2.6-1-3.3c-0.5-1.7-0.5-4.3-1.3-5.9
				c0.3,0.5,0.3,4.8,0.2,1.2c0-1.2-0.1-2.3-0.2-3.5c0-1.6,0.1-3.2,0.2-4.9c0.2-3.2-0.2,1.3-0.2,1.2c-0.1-0.1,0.5-2.8,0.5-2.7
				c0.4-1.8,0.8-3.5,1.4-5.2c0,0.1,0.7-2.5,0.9-2.5c-1.1,2.5-1.3,3.1-0.7,1.7c0.3-0.6,0.6-1.2,0.9-1.8c0.8-1.6,1.7-3.1,2.6-4.6
				c-0.1,0.1,1.4-2.2,1.5-2.2c0,0-2.8,3.2-0.7,0.9c1.3-1.5,2.6-2.9,4-4.3c0.6-0.6,1.3-1.2,1.9-1.8c3.1-2.8-0.5,0-0.4,0.3
				c-0.1-0.5,4.5-2.9,5-3.2c0.8-0.4,1.6-0.8,2.3-1.2c3.5-1.9-0.5-0.3-0.5,0.1c0.1-0.5,4.4-1.5,5.1-1.7c0.9-0.2,1.7-0.4,2.6-0.6
				c0.4-0.1,0.9-0.2,1.3-0.3c2.2-0.4,1.8-0.3-1.3,0.1c0.4-0.8,8.3-0.3,9.9-0.3c4.9,0,9.9,0,14.8,0c8.3,0,16.6-0.1,25,0
				c1,0,1.9,0,2.9,0.1c-0.1,0,2.7,0.1,2.8,0.2c-0.3-0.7-4.5-0.8-0.6,0c1.8,0.4,3.5,0.8,5.2,1.3c0.8,0.3,1.7,0.6,2.5,0.9
				c1.7,0.5-3.9-2.1,0.1,0.1c1.6,0.8,3.1,1.6,4.6,2.6c0.3,0.2,2.8,1.6,2.7,1.8c0,0.1-3.8-3.3-0.9-0.7c1.3,1.2,2.6,2.3,3.8,3.6
				c0.6,0.6,1.2,1.3,1.8,1.9c0.4,0.5,0.9,1,1.3,1.5c0.9,1.2,0.6,0.7-1.1-1.5c0.5-0.1,2.9,4.5,3.2,5c0.5,1,1,2,1.5,2.9
				c1.7,3.2-0.9-2.8-0.2-0.5c0.7,2.1,1.4,4.2,1.9,6.4c0.2,0.9,0.3,1.8,0.5,2.7c0.6,2.4-0.3-4.4-0.1-0.6c0.1,1.9,0.2,3.7,0.1,5.6
				c0,0.9-0.1,1.8-0.1,2.8c-0.2,4.6,1-4.3,0,0.1c-0.5,2.2-1,4.4-1.7,6.5c-0.1,0.3-0.8,2.5-0.9,2.5c0.3,0,2.2-4.3,0.1-0.5
				c-1,1.9-2.1,3.8-3.3,5.7c-0.6,1-1,3-0.3,0.6c1-1.3,1-1.3-0.1,0c-0.4,0.5-0.9,1-1.3,1.5c-1.3,1.5-2.7,2.8-4.2,4.1
				c0,0-1.7,1.7-2,1.7c2.3-1.8,2.6-2,0.9-0.8c-0.4,0.2-0.7,0.5-1.1,0.7c-1.9,1.2-3.8,2.2-5.7,3.2c-2.7,1.5,1.1-0.5,1.1-0.4
				c0,0.3-3.5,1.2-3.8,1.3c-2,0.6-3.9,0.9-5.9,1.4c-2.8,0.7,5.1-0.2,0.6-0.1C536.9,854,535.5,854.1,534.1,854.1
				c-10.5,0.1-20.5,9.1-20,20c0.5,10.7,8.8,20.2,20,20c23.7-0.3,44.7-11.6,58.7-30.6c12.5-17,16.2-39.9,10.7-60.2
				c-5.8-21.4-21.6-38.8-41.8-47.4c-12.8-5.4-26-5.7-39.6-5.7c-10.5,0-21-0.1-31.5,0c-19.6,0.1-38.9,7.8-52.4,22.1
				c-16,16.8-22.5,39.4-19,62.1c3.1,20.7,16.8,39.7,34.9,50.1c14.9,8.6,30.8,9.6,47.5,9.6c10.9,0,21.7,0,32.6,0
				c10.5,0,20.5-9.2,20-20C553.6,863.3,545.3,854.1,534.1,854.1z"/>
		</g>
	</g>
	<g>
		<g>
			<path class="st0" d="M586,842.1c40.3,0,80.7,0,121,0c10.7,0,21.5-0.6,31.7-4c20.8-6.9,39-21.4,49.3-40.9
				c8.8-16.7,10.1-34,10.1-52.3c0-41.9,0-83.7,0-125.6c0-51,0-102,0-153c0-37.1,1.3-74-6.5-110.6c-16-75.5-64.3-142.4-129.5-183.1
				c-66.9-41.7-150.4-53.6-226.3-32.5c-74.3,20.6-138.9,72.2-175.6,140c-19,35.2-30.2,73.7-33.6,113.5c-1.4,16.6-0.9,33.3-0.9,49.9
				c0,47.6,0,95.1,0,142.7c0,3.5,0,7.1,0,10.6c0,10.5,9.2,20.5,20,20c10.8-0.5,20-8.8,20-20c0-38.7,0-77.3,0-116
				c0-19.7,0-39.4,0-59.1c0-7.1,0-14.1,0.4-21.2c0.3-4.6,0.7-9.2,1.2-13.8c0.1-0.9,0.2-1.8,0.3-2.7c0.5-4.8-0.7,4.7,0-0.1
				c0.3-2.3,0.7-4.5,1.1-6.8c1.5-9.2,3.6-18.2,6.1-27.2c2.5-8.8,5.4-17.5,8.8-26.1c0.3-0.8,0.7-1.7,1-2.5c1.7-4.4-1.9,4.2,0.1-0.1
				c0.8-1.8,1.6-3.7,2.4-5.5c1.9-4.2,4-8.4,6.2-12.5c4.1-7.8,8.6-15.4,13.4-22.8c2.4-3.7,4.9-7.3,7.5-10.8c0.9-1.2,4.5-7.2,1.6-2.3
				c1.2-2,3-3.9,4.5-5.7c11.3-13.7,23.9-26.4,37.7-37.6c1.6-1.3,3.3-3.1,5.2-4.1c-0.4,0.2-3.7,2.8-0.9,0.7c0.9-0.7,1.8-1.3,2.6-2
				c3.7-2.7,7.5-5.4,11.4-7.9c7.4-4.9,15-9.3,22.8-13.4c3.9-2.1,7.9-4,11.9-5.9c2-0.9,4-1.8,6.1-2.7c1.7-0.8,1.4-1.6-1.1,0.5
				c1.1-0.8,3.1-1.3,4.3-1.8c8.5-3.4,17.3-6.3,26.1-8.7c8.7-2.4,17.6-4.4,26.5-5.9c2.3-0.4,4.5-0.7,6.8-1.1c2.2-0.3,1.1-1.1-1.2,0.2
				c0.8-0.4,2.5-0.3,3.4-0.4c4.8-0.5,9.7-1,14.5-1.2c8.9-0.5,17.8-0.6,26.7-0.2c4.6,0.2,9.3,0.5,13.9,0.9c2.3,0.2,4.6,0.5,6.9,0.7
				c3.6,0.4-0.8-0.2-1.2-0.2c1.5,0,3.2,0.5,4.8,0.7c18.1,2.8,35.8,7.5,52.9,14c2.1,0.8,4.1,1.6,6.2,2.4c1.3,0.5,3.1,0.5-1.1-0.5
				c1,0.3,2.1,0.9,3.1,1.3c4.3,1.9,8.5,3.9,12.6,6c7.9,4,15.6,8.4,23,13.1c3.7,2.4,7.4,4.8,11,7.4c1.8,1.3,3.6,2.6,5.3,3.9
				c0.4,0.3,1.8,1.1,2.1,1.6c-2.3-1.8-2.6-2-0.9-0.7c0.5,0.4,1,0.8,1.5,1.2c7,5.6,13.8,11.6,20.2,17.9c6.3,6.1,12.3,12.6,17.9,19.3
				c1.4,1.7,2.8,3.4,4.2,5.1c0.5,0.7,1.1,1.4,1.6,2.1c2.8,3.5-2-2.8-0.3-0.4c2.6,3.8,5.5,7.4,8.1,11.3c5,7.3,9.6,14.8,13.8,22.6
				c2.1,3.9,4.1,7.8,6,11.8c1,2,1.9,4,2.8,6c0.4,0.8,0.7,1.6,1.1,2.4c0.4,0.8,0.7,1.6,1.1,2.4c-1.1-2.5-1.3-3.1-0.7-1.7
				c6.7,17,12.1,34.3,15.4,52.3c0.4,2.2,0.8,4.5,1.2,6.7c0.1,0.9,0.3,1.8,0.4,2.7c0.1,0.5,0.1,0.9,0.2,1.4c0.3,2.2,0.3,1.8-0.2-1.2
				c0.8,1.4,0.5,4.5,0.7,6.2c0.3,2.5,0.5,5.1,0.7,7.6c0.5,6.6,0.7,13.2,0.7,19.7c0,8.7,0,17.4,0,26.1c0,45.8,0,91.6,0,137.3
				c0,47.5,0,95.1,0,142.6c0,11.1,0,22.1,0,33.2c0,0.6,0,1.1,0,1.7c0,1.9-0.2,3.7-0.2,5.6c-0.2,4.8,1-4.5,0,0.1
				c-0.2,0.9-0.3,1.8-0.5,2.7c-0.5,2.2-1.1,4.4-1.8,6.5c-0.3,1.1-0.8,2.1-1.1,3.1c-0.6,1.4-0.3,0.8,0.7-1.7
				c-0.4,0.8-0.7,1.6-1.1,2.4c-0.9,1.8-1.9,3.5-2.9,5.2c-0.7,1.1-2.1,4.4-3.3,4.9c0.5-0.7,1-1.3,1.5-2c-0.6,0.7-1.1,1.3-1.7,2
				c-0.6,0.7-1.2,1.3-1.8,1.9c-0.5,0.6-4.9,5.6-5.8,5.3c0.3,0.1,3.4-2.4,0.9-0.7c-1.1,0.7-2.2,1.5-3.3,2.2c-1.7,1.1-3.4,2-5.2,2.9
				c-0.5,0.2-2.6,1.6-3,1.4c1,0.5,4-1.5,0.5-0.3c-2.3,0.8-4.7,1.6-7.1,2.1c-1.1,0.3-2.2,0.5-3.3,0.7c-2.1,0.4-3.4-0.6,0.6,0
				c-2.1-0.3-4.8,0.4-7,0.4c-0.3,0-0.7,0-1,0c-2.6,0-5.1,0-7.7,0c-10.3,0-20.6,0-31,0c-24.6,0-49.2,0-73.8,0c-4.6,0-9.2,0-13.7,0
				c-10.5,0-20.5,9.2-20,20C566.5,833,574.8,842.1,586,842.1L586,842.1z"/>
		</g>
	</g>
</g>
</svg>
