<?xml version="1.0" encoding="utf-8"?>
<!-- Generator: Adobe Illustrator 21.0.0, SVG Export Plug-In . SVG Version: 6.00 Build 0)  -->
<svg version="1.1" id="Слой_1" xmlns="http://www.w3.org/2000/svg" xmlns:xlink="http://www.w3.org/1999/xlink" x="0px" y="0px"
	 viewBox="0 0 100 125" style="enable-background:new 0 0 100 125;" xml:space="preserve">
<style type="text/css">
	.st0{fill:#768A8F;}
</style>
<g transform="translate(0,-952.36218)">
	<path class="st0" d="M24,971.4c-8.8,0-16,7.2-16,16v30c0,8.8,7.2,16,16,16h52c8.8,0,16-7.2,16-16v-30c0-8.8-7.2-16-16-16L24,971.4
		L24,971.4z M24,975.4h52c6.7,0,12,5.3,12,12v30c0,6.7-5.3,12-12,12H24c-6.7,0-12-5.3-12-12v-30C12,980.7,17.3,975.4,24,975.4
		L24,975.4z M41.8,987.4c-1,0.1-1.8,1-1.8,2v26c0,1,0.7,1.8,1.7,2c0.5,0.1,1,0,1.4-0.2l22-13c1-0.6,1.3-1.8,0.7-2.7
		c-0.2-0.3-0.4-0.6-0.7-0.7l-22-13C42.7,987.4,42.3,987.3,41.8,987.4z M44,992.9l16,9.5l-16,9.5V992.9z"/>
</g>
</svg>
