<?xml version="1.0" encoding="utf-8"?>
<!-- Generator: Adobe Illustrator 21.0.0, SVG Export Plug-In . SVG Version: 6.00 Build 0)  -->
<svg version="1.1" id="Слой_1" xmlns="http://www.w3.org/2000/svg" xmlns:xlink="http://www.w3.org/1999/xlink" x="0px" y="0px"
	 viewBox="0 0 1024 1280" style="enable-background:new 0 0 1024 1280;" xml:space="preserve">
<style type="text/css">
	.st0{fill:#768A8F;}
</style>
<path class="st0" d="M871.5,102v924H152.5V102H871.5 M921.5,52H102.5v1024h819.1V52L921.5,52z"/>
<polygon class="st0" points="645.5,226.6 269.9,226.6 269.9,274 645.5,274 645.5,226.6 "/>
<polygon class="st0" points="757.3,370.3 269.9,370.3 269.9,417.7 757.3,417.7 757.3,370.3 "/>
<polygon class="st0" points="757.3,514 269.9,514 269.9,561.4 757.3,561.4 757.3,514 "/>
<polygon class="st0" points="757.3,657.7 269.9,657.7 269.9,705.1 757.3,705.1 757.3,657.7 "/>
<polygon class="st0" points="757.3,801.4 269.9,801.4 269.9,848.8 757.3,848.8 757.3,801.4 "/>
</svg>
